<svg width="1225" height="1060" viewBox="0 0 1225 1060" fill="none" xmlns="http://www.w3.org/2000/svg">
<path d="M1016.1 183.033C1123.45 306.219 1222.43 436.947 1208.87 564.742C1195.54 692.747 1069.66 817.818 935.414 847.148C801.17 876.269 658.79 809.648 525.224 743.236C391.658 676.825 267.132 610.832 227.356 509.434C187.354 408.246 232.102 271.652 321.372 152.237C410.642 32.612 544.208 -69.624 668.96 -62.92C793.486 -56.0065 908.972 59.6375 1016.1 183.033Z" fill="#FC85AE" fill-opacity="0.2"/>
<g opacity="0.1">
<path d="M983.931 291.822C1081.23 393.546 1170.94 501.498 1158.65 607.028C1146.57 712.731 1032.48 816.012 910.805 840.232C789.134 864.279 660.089 809.265 539.033 754.424C417.976 699.583 305.113 645.088 269.062 561.356C232.807 477.797 273.364 365.001 354.273 266.391C435.182 167.608 556.239 83.184 669.307 88.72C782.17 94.429 886.84 189.925 983.931 291.822Z" fill="#FC85AE" fill-opacity="0.2"/>
</g>
</svg>
