<svg width="98" height="27" viewBox="0 0 98 27" fill="none" xmlns="http://www.w3.org/2000/svg">
<path d="M6.23 10C6.13667 10 6.07133 9.958 6.034 9.874L4.284 5.996C4.26533 5.95867 4.23733 5.94 4.2 5.94H2.898C2.85133 5.94 2.828 5.96333 2.828 6.01V9.832C2.828 9.87867 2.80933 9.92067 2.772 9.958C2.744 9.986 2.70667 10 2.66 10H1.022C0.975333 10 0.933333 9.986 0.896 9.958C0.868 9.92067 0.854 9.87867 0.854 9.832V0.368C0.854 0.321333 0.868 0.284 0.896 0.255999C0.933333 0.218666 0.975333 0.199999 1.022 0.199999H5.026C5.62333 0.199999 6.146 0.321333 6.594 0.564C7.05133 0.806667 7.40133 1.152 7.644 1.6C7.896 2.048 8.022 2.566 8.022 3.154C8.022 3.78867 7.86333 4.33467 7.546 4.792C7.22867 5.24 6.78533 5.55733 6.216 5.744C6.16933 5.76267 6.15533 5.79533 6.174 5.842L8.078 9.804C8.09667 9.84133 8.106 9.86933 8.106 9.888C8.106 9.96267 8.05467 10 7.952 10H6.23ZM2.898 1.894C2.85133 1.894 2.828 1.91733 2.828 1.964V4.358C2.828 4.40467 2.85133 4.428 2.898 4.428H4.732C5.124 4.428 5.44133 4.31133 5.684 4.078C5.936 3.84467 6.062 3.54133 6.062 3.168C6.062 2.79467 5.936 2.49133 5.684 2.258C5.44133 2.01533 5.124 1.894 4.732 1.894H2.898ZM29.9587 10C29.8654 10 29.8047 9.95333 29.7767 9.86L29.3567 8.488C29.338 8.45067 29.3147 8.432 29.2867 8.432H25.8427C25.8147 8.432 25.7914 8.45067 25.7727 8.488L25.3667 9.86C25.3387 9.95333 25.278 10 25.1847 10H23.4067C23.3507 10 23.3087 9.986 23.2807 9.958C23.2527 9.92067 23.248 9.86933 23.2667 9.804L26.2907 0.339999C26.3187 0.246666 26.3794 0.199999 26.4727 0.199999H28.6707C28.764 0.199999 28.8247 0.246666 28.8527 0.339999L31.8767 9.804C31.886 9.82267 31.8907 9.846 31.8907 9.874C31.8907 9.958 31.8394 10 31.7367 10H29.9587ZM26.2767 6.822C26.2674 6.878 26.286 6.906 26.3327 6.906H28.7967C28.8527 6.906 28.8714 6.878 28.8527 6.822L27.5927 2.664C27.5834 2.62667 27.5694 2.61267 27.5507 2.622C27.532 2.622 27.518 2.636 27.5087 2.664L26.2767 6.822ZM52.7501 0.199999C52.7968 0.199999 52.8341 0.218666 52.8621 0.255999C52.8995 0.284 52.9181 0.321333 52.9181 0.368V1.74C52.9181 1.78667 52.8995 1.82867 52.8621 1.866C52.8341 1.894 52.7968 1.908 52.7501 1.908H50.2441C50.1975 1.908 50.1741 1.93133 50.1741 1.978V9.832C50.1741 9.87867 50.1555 9.92067 50.1181 9.958C50.0901 9.986 50.0528 10 50.0061 10H48.3681C48.3215 10 48.2795 9.986 48.2421 9.958C48.2141 9.92067 48.2001 9.87867 48.2001 9.832V1.978C48.2001 1.93133 48.1768 1.908 48.1301 1.908H45.6941C45.6475 1.908 45.6055 1.894 45.5681 1.866C45.5401 1.82867 45.5261 1.78667 45.5261 1.74V0.368C45.5261 0.321333 45.5401 0.284 45.5681 0.255999C45.6055 0.218666 45.6475 0.199999 45.6941 0.199999H52.7501ZM75.0516 1.726C75.0516 1.77267 75.0329 1.81467 74.9956 1.852C74.9676 1.88 74.9303 1.894 74.8836 1.894H70.2916C70.2449 1.894 70.2216 1.91733 70.2216 1.964V4.134C70.2216 4.18067 70.2449 4.204 70.2916 4.204H73.3016C73.3483 4.204 73.3856 4.22267 73.4136 4.26C73.4509 4.288 73.4696 4.32533 73.4696 4.372V5.73C73.4696 5.77667 73.4509 5.81867 73.4136 5.856C73.3856 5.884 73.3483 5.898 73.3016 5.898H70.2916C70.2449 5.898 70.2216 5.92133 70.2216 5.968V8.236C70.2216 8.28267 70.2449 8.306 70.2916 8.306H74.8836C74.9303 8.306 74.9676 8.32467 74.9956 8.362C75.0329 8.39 75.0516 8.42733 75.0516 8.474V9.832C75.0516 9.87867 75.0329 9.92067 74.9956 9.958C74.9676 9.986 74.9303 10 74.8836 10H68.4156C68.3689 10 68.3269 9.986 68.2896 9.958C68.2616 9.92067 68.2476 9.87867 68.2476 9.832V0.368C68.2476 0.321333 68.2616 0.284 68.2896 0.255999C68.3269 0.218666 68.3689 0.199999 68.4156 0.199999H74.8836C74.9303 0.199999 74.9676 0.218666 74.9956 0.255999C75.0329 0.284 75.0516 0.321333 75.0516 0.368V1.726ZM6.062 17.368C6.062 17.3213 6.076 17.284 6.104 17.256C6.14133 17.2187 6.18333 17.2 6.23 17.2H7.868C7.91467 17.2 7.952 17.2187 7.98 17.256C8.01733 17.284 8.036 17.3213 8.036 17.368V26.832C8.036 26.8787 8.01733 26.9207 7.98 26.958C7.952 26.986 7.91467 27 7.868 27H6.23C6.18333 27 6.14133 26.986 6.104 26.958C6.076 26.9207 6.062 26.8787 6.062 26.832V22.968C6.062 22.9213 6.03867 22.898 5.992 22.898H2.898C2.85133 22.898 2.828 22.9213 2.828 22.968V26.832C2.828 26.8787 2.80933 26.9207 2.772 26.958C2.744 26.986 2.70667 27 2.66 27H1.022C0.975333 27 0.933333 26.986 0.896 26.958C0.868 26.9207 0.854 26.8787 0.854 26.832V17.368C0.854 17.3213 0.868 17.284 0.896 17.256C0.933333 17.2187 0.975333 17.2 1.022 17.2H2.66C2.70667 17.2 2.744 17.2187 2.772 17.256C2.80933 17.284 2.828 17.3213 2.828 17.368V21.134C2.828 21.1807 2.85133 21.204 2.898 21.204H5.992C6.03867 21.204 6.062 21.1807 6.062 21.134V17.368ZM29.986 27C29.8927 27 29.832 26.9533 29.804 26.86L29.384 25.488C29.3654 25.4507 29.342 25.432 29.314 25.432H25.87C25.842 25.432 25.8187 25.4507 25.8 25.488L25.394 26.86C25.366 26.9533 25.3054 27 25.212 27H23.434C23.378 27 23.336 26.986 23.308 26.958C23.28 26.9207 23.2754 26.8693 23.294 26.804L26.318 17.34C26.346 17.2467 26.4067 17.2 26.5 17.2H28.698C28.7914 17.2 28.852 17.2467 28.88 17.34L31.904 26.804C31.9134 26.8227 31.918 26.846 31.918 26.874C31.918 26.958 31.8667 27 31.764 27H29.986ZM26.304 23.822C26.2947 23.878 26.3134 23.906 26.36 23.906H28.824C28.88 23.906 28.8987 23.878 28.88 23.822L27.62 19.664C27.6107 19.6267 27.5967 19.6127 27.578 19.622C27.5594 19.622 27.5454 19.636 27.536 19.664L26.304 23.822ZM52.7775 17.2C52.8242 17.2 52.8615 17.2187 52.8895 17.256C52.9268 17.284 52.9455 17.3213 52.9455 17.368V18.74C52.9455 18.7867 52.9268 18.8287 52.8895 18.866C52.8615 18.894 52.8242 18.908 52.7775 18.908H50.2715C50.2248 18.908 50.2015 18.9313 50.2015 18.978V26.832C50.2015 26.8787 50.1828 26.9207 50.1455 26.958C50.1175 26.986 50.0802 27 50.0335 27H48.3955C48.3488 27 48.3068 26.986 48.2695 26.958C48.2415 26.9207 48.2275 26.8787 48.2275 26.832V18.978C48.2275 18.9313 48.2042 18.908 48.1575 18.908H45.7215C45.6748 18.908 45.6328 18.894 45.5955 18.866C45.5675 18.8287 45.5535 18.7867 45.5535 18.74V17.368C45.5535 17.3213 45.5675 17.284 45.5955 17.256C45.6328 17.2187 45.6748 17.2 45.7215 17.2H52.7775ZM75.0789 18.726C75.0789 18.7727 75.0603 18.8147 75.0229 18.852C74.9949 18.88 74.9576 18.894 74.9109 18.894H70.3189C70.2723 18.894 70.2489 18.9173 70.2489 18.964V21.134C70.2489 21.1807 70.2723 21.204 70.3189 21.204H73.3289C73.3756 21.204 73.4129 21.2227 73.4409 21.26C73.4783 21.288 73.4969 21.3253 73.4969 21.372V22.73C73.4969 22.7767 73.4783 22.8187 73.4409 22.856C73.4129 22.884 73.3756 22.898 73.3289 22.898H70.3189C70.2723 22.898 70.2489 22.9213 70.2489 22.968V25.236C70.2489 25.2827 70.2723 25.306 70.3189 25.306H74.9109C74.9576 25.306 74.9949 25.3247 75.0229 25.362C75.0603 25.39 75.0789 25.4273 75.0789 25.474V26.832C75.0789 26.8787 75.0603 26.9207 75.0229 26.958C74.9949 26.986 74.9576 27 74.9109 27H68.4429C68.3963 27 68.3543 26.986 68.3169 26.958C68.2889 26.9207 68.2749 26.8787 68.2749 26.832V17.368C68.2749 17.3213 68.2889 17.284 68.3169 17.256C68.3543 17.2187 68.3963 17.2 68.4429 17.2H74.9109C74.9576 17.2 74.9949 17.2187 75.0229 17.256C75.0603 17.284 75.0789 17.3213 75.0789 17.368V18.726Z" fill="#F2F2F2"/>
<path d="M93.9794 10.154C93.2514 10.154 92.6074 10.0047 92.0474 9.706C91.4967 9.40733 91.0674 8.992 90.7594 8.46C90.4514 7.91867 90.2974 7.298 90.2974 6.598V3.602C90.2974 2.91133 90.4514 2.3 90.7594 1.768C91.0674 1.236 91.4967 0.825333 92.0474 0.535999C92.6074 0.237333 93.2514 0.0879999 93.9794 0.0879999C94.7167 0.0879999 95.3607 0.237333 95.9114 0.535999C96.4714 0.825333 96.9054 1.236 97.2134 1.768C97.5214 2.3 97.6754 2.91133 97.6754 3.602V6.598C97.6754 7.298 97.5214 7.91867 97.2134 8.46C96.9054 9.00133 96.4714 9.42133 95.9114 9.72C95.3607 10.0093 94.7167 10.154 93.9794 10.154ZM93.9794 8.46C94.4927 8.46 94.908 8.29667 95.2254 7.97C95.5427 7.64333 95.7014 7.20933 95.7014 6.668V3.588C95.7014 3.04667 95.5427 2.61267 95.2254 2.286C94.9174 1.95 94.502 1.782 93.9794 1.782C93.466 1.782 93.0507 1.95 92.7334 2.286C92.4254 2.61267 92.2714 3.04667 92.2714 3.588V6.668C92.2714 7.20933 92.4254 7.64333 92.7334 7.97C93.0507 8.29667 93.466 8.46 93.9794 8.46ZM95.8967 27C95.8034 27 95.7381 26.958 95.7007 26.874L93.9507 22.996C93.9321 22.9587 93.9041 22.94 93.8667 22.94H92.5647C92.5181 22.94 92.4947 22.9633 92.4947 23.01V26.832C92.4947 26.8787 92.4761 26.9207 92.4387 26.958C92.4107 26.986 92.3734 27 92.3267 27H90.6887C90.6421 27 90.6001 26.986 90.5627 26.958C90.5347 26.9207 90.5207 26.8787 90.5207 26.832V17.368C90.5207 17.3213 90.5347 17.284 90.5627 17.256C90.6001 17.2187 90.6421 17.2 90.6887 17.2H94.6927C95.2901 17.2 95.8127 17.3213 96.2607 17.564C96.7181 17.8067 97.0681 18.152 97.3107 18.6C97.5627 19.048 97.6887 19.566 97.6887 20.154C97.6887 20.7887 97.5301 21.3347 97.2127 21.792C96.8954 22.24 96.4521 22.5573 95.8827 22.744C95.8361 22.7627 95.8221 22.7953 95.8407 22.842L97.7447 26.804C97.7634 26.8413 97.7727 26.8693 97.7727 26.888C97.7727 26.9627 97.7214 27 97.6187 27H95.8967ZM92.5647 18.894C92.5181 18.894 92.4947 18.9173 92.4947 18.964V21.358C92.4947 21.4047 92.5181 21.428 92.5647 21.428H94.3987C94.7907 21.428 95.1081 21.3113 95.3507 21.078C95.6027 20.8447 95.7287 20.5413 95.7287 20.168C95.7287 19.7947 95.6027 19.4913 95.3507 19.258C95.1081 19.0153 94.7907 18.894 94.3987 18.894H92.5647Z" fill="#FB518B"/>
</svg>
